<svg enable-background="new 0 0 512.001 512.001" viewBox="0 0 512.001 512.001" xmlns="http://www.w3.org/2000/svg"><path d="m397.825 90.914h-283.649c-17.167 0-31.083 13.917-31.083 31.083v351.414c0 17.166 13.917 31.083 31.083 31.083h283.648c17.167 0 31.083-13.917 31.083-31.083v-351.414c.001-17.166-13.916-31.083-31.082-31.083z" fill="#b8703f"/><path d="m370.142 135.966-114.141-23.995-114.142 23.995h-26.275v333.497h280.833v-333.497z" fill="#e6e0cb"/><path d="m312.922 60.533h-16.795v-12.9c0-22.161-17.965-40.126-40.126-40.126-22.161 0-40.126 17.965-40.126 40.126v12.901h-16.795c-31.601 0-57.219 25.618-57.219 57.219v18.212h228.282v-18.212c-.001-31.601-25.62-57.22-57.221-57.22z" fill="#ccc"/><circle cx="256.003" cy="48.64" r="12.52"/><path d="m310.666 78.996h-109.331c-4.145 0-7.506 3.361-7.506 7.506s3.361 7.506 7.506 7.506h109.333c4.145 0 7.506-3.361 7.506-7.506s-3.361-7.506-7.508-7.506z"/><path d="m310.666 104.465h-109.331c-4.145 0-7.506 3.361-7.506 7.506s3.361 7.506 7.506 7.506h109.333c4.145 0 7.506-3.361 7.506-7.506s-3.361-7.506-7.508-7.506z"/><path d="m232.265 191.276c-.396-4.126-4.062-7.153-8.19-6.754-24.764 2.381-43.369 10.355-54.601 16.61v-14.501c0-4.145-3.361-7.506-7.506-7.506s-7.506 3.361-7.506 7.506v28.349c0 2.912 1.685 5.563 4.323 6.798 1.016.476 2.103.709 3.183.709 1.724 0 3.431-.593 4.807-1.739.212-.177 21.635-17.713 58.739-21.28 4.125-.399 7.149-4.066 6.751-8.192z"/><path d="m347.993 187.552h-85.656c-4.145 0-7.506 3.361-7.506 7.506s3.361 7.506 7.506 7.506h85.656c4.145 0 7.506-3.361 7.506-7.506.001-4.146-3.36-7.506-7.506-7.506z"/><path d="m232.265 255.634c-.396-4.126-4.062-7.149-8.19-6.754-24.764 2.381-43.369 10.355-54.601 16.61v-14.501c0-4.145-3.361-7.506-7.506-7.506s-7.506 3.361-7.506 7.506v28.349c0 2.912 1.685 5.563 4.323 6.798 1.016.476 2.103.709 3.183.709 1.724 0 3.431-.593 4.807-1.739.212-.177 21.635-17.713 58.739-21.28 4.125-.398 7.149-4.065 6.751-8.192z"/><path d="m347.993 251.911h-85.656c-4.145 0-7.506 3.361-7.506 7.506s3.361 7.506 7.506 7.506h85.656c4.145 0 7.506-3.361 7.506-7.506.001-4.145-3.36-7.506-7.506-7.506z"/><path d="m161.968 307.842c-4.145 0-7.506 3.361-7.506 7.506v28.349c0 2.912 1.685 5.563 4.323 6.798 1.016.476 2.103.709 3.183.709 1.724 0 3.431-.593 4.807-1.739.212-.177 21.635-17.712 58.739-21.28 4.126-.396 7.15-4.063 6.754-8.19-.396-4.126-4.062-7.153-8.19-6.754-24.764 2.381-43.369 10.355-54.601 16.609v-14.501c-.003-4.147-3.364-7.507-7.509-7.507z"/><path d="m347.993 316.27h-85.656c-4.145 0-7.506 3.361-7.506 7.506s3.361 7.506 7.506 7.506h85.656c4.145 0 7.506-3.361 7.506-7.506.001-4.146-3.36-7.506-7.506-7.506z"/><path d="m397.825 83.408h-30.079c-11.463-18.23-31.745-30.38-54.824-30.38h-9.289v-5.394c.001-26.266-21.367-47.634-47.633-47.634-26.265 0-47.633 21.368-47.633 47.633v5.394h-9.289c-23.079 0-43.362 12.15-54.824 30.38h-30.079c-21.278 0-38.589 17.311-38.589 38.589v39.262c0 4.145 3.361 7.506 7.506 7.506s7.506-3.361 7.506-7.506v-39.262c0-13 10.577-23.577 23.577-23.577h23.127c-1.956 6.236-2.95 12.797-2.95 19.333v10.706h-18.769c-4.145 0-7.506 3.361-7.506 7.506v333.496c0 4.145 3.361 7.506 7.506 7.506h280.832c4.145 0 7.506-3.361 7.506-7.506v-34.496c0-4.145-3.361-7.506-7.506-7.506s-7.506 3.361-7.506 7.506v26.989h-265.82v-318.481h265.82v261.469c0 4.145 3.361 7.506 7.506 7.506s7.506-3.361 7.506-7.506v-268.975c0-4.145-3.361-7.506-7.506-7.506h-18.769v-10.706c0-6.518-1-13.111-2.95-19.333h23.127c13 0 23.577 10.577 23.577 23.577v351.414c0 13.001-10.577 23.578-23.577 23.578h-218.176c-4.145 0-7.506 3.361-7.506 7.506s3.361 7.506 7.506 7.506h218.178c21.278 0 38.589-17.311 38.589-38.59v-351.415c0-21.277-17.312-38.589-38.589-38.589zm-248.46 45.052v-10.706c0-7.745 1.84-15.459 5.337-22.368 8.201-16.204 25.007-27.346 44.376-27.346h16.795c9.766 0 7.506-14.133 7.506-20.407 0-17.987 14.633-32.62 32.62-32.62s32.62 14.633 32.62 32.621c0 6.369-2.771 20.406 7.506 20.406h16.795c19.369 0 36.175 11.141 44.376 27.346 3.424 6.765 5.337 14.711 5.337 22.368v10.706z"/><path d="m83.093 183.778c-4.145 0-7.506 3.361-7.506 7.506v282.126c0 21.279 17.311 38.59 38.589 38.59h35.445c4.145 0 7.506-3.361 7.506-7.506s-3.361-7.506-7.506-7.506h-35.445c-13 0-23.577-10.577-23.577-23.578v-282.126c.001-4.146-3.36-7.506-7.506-7.506z"/></svg>